<svg data-v-0dd9719b="" version="1.0" xmlns="http://www.w3.org/2000/svg" xmlns:xlink="http://www.w3.org/1999/xlink" width="100%" height="100%" viewBox="0 0 340.000000 250.000000" preserveAspectRatio="xMidYMid meet" color-interpolation-filters="sRGB" style="margin: auto;"> <rect data-v-0dd9719b="" x="0" y="0" width="100%" height="100%" fill="#feffff" fill-opacity="1" class="background"></rect> <rect data-v-0dd9719b="" x="0" y="0" width="100%" height="100%" fill="url(#watermark)" fill-opacity="1" class="watermarklayer"></rect> <g data-v-0dd9719b="" fill="#2052a3" class="iconlinesvg-g iconlinesvg" transform="translate(83.84357452392578,90.14273071289062)"><g class="tp-name"><g transform="translate(0, 0)"><g><g class="imagesvg"><g><rect fill="#2052a3" fill-opacity="0" stroke-width="2" x="0" y="0" width="56.37954064179839" height="69.71453734518548" class="image-rect"></rect> <svg x="0" y="0" width="56.37954064179839" height="69.71453734518548" filtersec="colorsb6778767153" class="image-svg-svg primary" style="overflow: visible;"><svg xmlns="http://www.w3.org/2000/svg" viewBox="0 0 28.3700008392334 35.08000183105469"><g><g><path fill="#e5004f" opacity=".9" d="M0 0l19.07 22.98L28.37 0H0z"></path><path fill="#2052a3" opacity=".9" d="M0 0l14.18 35.08 9.8-24.24L0 0z"></path></g></g></svg></svg> <!----></g></g></g></g><g transform="translate(60, 5.492189307513371)"><g data-gra="path-name" fill="#2052a3" transform="scale(1)"><path d="M5.40-42.54L12.70-42.54L12.70 0L5.40 0L5.40-42.54ZM12.70-58.10L12.70-50.16L5.40-50.16L5.40-58.10L12.70-58.10Z" transform="translate(-5.396825396825396, 58.0952380952381)"></path></g></g><g transform="translate(71, 5.492189307513371)"><g data-gra="path-name" fill="#2052a3" transform="scale(1)"><path d="M36.19-30.16L36.19-30.16L29.21-30.16Q29.21-37.46 19.05-37.46L19.05-37.46Q11.11-37.14 10.79-31.43L10.79-31.43Q10.16-27.30 18.41-25.71L18.41-25.71L25.71-24.13Q37.78-21.27 37.46-12.70L37.46-12.70Q36.83 0 20.95 0.63L20.95 0.63Q2.86 0.63 2.54-13.65L2.54-13.65L9.21-13.65Q9.84-4.76 20.95-4.76L20.95-4.76Q30.16-5.08 30.48-11.75L30.48-11.75Q31.11-15.56 22.22-17.78L22.22-17.78L13.65-19.68Q3.81-22.22 3.81-29.84L3.81-29.84Q4.44-42.86 20-43.81L20-43.81Q35.24-43.49 36.19-30.16Z" transform="translate(-2.5396825396825395, 58.0952380952381)"></path></g></g><g transform="translate(109, 5.492189307513371)"><g data-gra="path-name" fill="#2052a3" transform="scale(1)"><path d="M20.95-42.54L20.95-36.51L13.97-36.51L13.97-8.89Q13.97-5.40 18.10-5.40L18.10-5.40L20.95-5.40L20.95 0Q19.05 0 16.51 0L16.51 0Q15.87 0 15.56 0L15.56 0Q6.35 0 6.67-8.25L6.67-8.25L6.67-36.51L1.27-36.51L1.27-42.54L6.67-42.54L6.67-54.29L13.97-54.29L13.97-42.54L20.95-42.54Z" transform="translate(-1.2698412698412698, 58.0952380952381)"></path></g></g><g transform="translate(132, 5.492189307513371)"><g data-gra="path-name" fill="#2052a3" transform="scale(1)"><path d="M11.75-29.52L11.75-29.52L5.08-29.52Q5.40-43.81 22.54-43.81L22.54-43.81Q37.78-43.17 38.10-31.75L38.10-31.75L38.10-7.30Q38.10-4.76 40.63-4.76L40.63-4.76Q40.95-4.76 41.59-4.76L41.59-4.76Q42.54-5.08 43.17-5.08L43.17-5.08L43.17 0Q42.54 0 41.59 0L41.59 0Q40 0.32 39.05 0.32L39.05 0.32Q31.43 0.32 31.75-5.71L31.75-5.71Q25.40 0.63 16.19 0.63L16.19 0.63Q3.49 0 2.86-11.11L2.86-11.11Q3.17-22.54 15.87-24.44L15.87-24.44L27.62-25.71Q31.43-26.35 31.43-30.79L31.43-30.79Q31.43-37.78 21.27-37.78L21.27-37.78Q12.38-37.78 11.75-29.52ZM31.11-14.60L31.11-14.60L31.11-21.59Q28.57-20 19.37-18.73L19.37-18.73Q10.48-18.10 10.48-12.06L10.48-12.06Q10.48-4.76 17.78-4.76L17.78-4.76Q30.16-5.71 31.11-14.60Z" transform="translate(-2.8571428571428568, 58.0952380952381)"></path></g></g></g> <!----></g><defs v-gra="od"></defs></svg>